# xmcd
# 
# Track frame offsets:
#     182
#     10192
#     22302
#     32020
#     41737
#     51282
#     60710
#     70220
#     79962
#     90695
#     100702
#     110485
#     120840
#     132332
#     141315
#     150225
#     157282
#     168535
# 
# Disc length: 2377
# 
# Revision: 0
# Processed by: cddbd v1.5.2PL0 Copyright (c) Steve Scherf et al.
# Submitted via: fre:ac v1.0.17
# 
DISCID=f5094712
DTITLE=Roy Orbison - The Classic Roy Orbison
DYEAR=0
DGENRE=
TTITLE0=Ooby Dooby
TTITLE1=Trying To Get To You
TTITLE2=(Go, Go, Go) Down The Line
TTITLE3=This Kind Of Love
TTITLE4=You're Gonna Cry
TTITLE5=You're My Baby
TTITLE6=Rockhouse
TTITLE7=Claudette
TTITLE8=Domino
TTITLE9=Sweet and Easy To Love
TTITLE10=Devil Doll
TTITLE11=Chicken Hearted
TTITLE12=I Like Love
TTITLE13=It's Too Late
TTITLE14=Mean Little Mama
TTITLE15=You Tell Me
TTITLE16=Fools Hall Of Fame
TTITLE17=Problem Child
EXTD=
EXTT0=
EXTT1=
EXTT2=
EXTT3=
EXTT4=
EXTT5=
EXTT6=
EXTT7=
EXTT8=
EXTT9=
EXTT10=
EXTT11=
EXTT12=
EXTT13=
EXTT14=
EXTT15=
EXTT16=
EXTT17=
PLAYORDER=
